<svg width="13" height="7" viewBox="0 0 13 7" fill="none" xmlns="http://www.w3.org/2000/svg">
<path d="M6.5 -5.68248e-07C6.61633 -5.58078e-07 6.72903 0.0206484 6.83809 0.0619464C6.94715 0.103244 7.05984 0.151425 7.17617 0.206489L12.7601 5.49263C12.92 5.65782 13 5.87119 13 6.13274C13 6.3943 12.92 6.60767 12.7601 6.77286C12.5856 6.92429 12.3602 7 12.0839 7C11.8076 7 11.5822 6.92429 11.4077 6.77286L6.5 2.10619L1.59228 6.77286C1.41779 6.92429 1.19239 7 0.916107 7C0.63982 7 0.414429 6.92429 0.239932 6.77286C0.0799774 6.60767 -5.59007e-07 6.3943 -5.36141e-07 6.13274C-5.13276e-07 5.87119 0.0799775 5.65782 0.239933 5.49262L5.82383 0.206489C5.94016 0.110127 6.05285 0.0516218 6.16191 0.0309729C6.27097 0.0103239 6.38367 -5.78418e-07 6.5 -5.68248e-07Z" fill="white"/>
</svg>
