<svg width="13" height="7" viewBox="0 0 13 7" fill="none" xmlns="http://www.w3.org/2000/svg">
<path d="M6.5 7C6.38367 7 6.27097 6.97935 6.16191 6.93805C6.05285 6.89676 5.94016 6.84857 5.82383 6.79351L0.239933 1.50737C0.0799776 1.34218 0 1.12881 0 0.867257C0 0.605703 0.0799776 0.392331 0.239933 0.227139C0.41443 0.0757127 0.639821 0 0.916107 0C1.19239 0 1.41779 0.0757127 1.59228 0.227139L6.5 4.89381L11.4077 0.227139C11.5822 0.0757127 11.8076 0 12.0839 0C12.3602 0 12.5856 0.0757127 12.7601 0.227139C12.92 0.392331 13 0.605703 13 0.867257C13 1.12881 12.92 1.34218 12.7601 1.50737L7.17617 6.79351C7.05984 6.88987 6.94715 6.94838 6.83809 6.96903C6.72903 6.98968 6.61633 7 6.5 7Z" fill="#767676"/>
</svg>
