<svg width="17" height="16" viewBox="0 0 17 16" fill="none" xmlns="http://www.w3.org/2000/svg">
<path d="M8.5 4.29346V6.51346" stroke="#3EB489" stroke-miterlimit="10" stroke-linecap="round"/>
<path d="M8.51327 1.3335C6.05993 1.3335 4.07327 3.32016 4.07327 5.7735V7.1735C4.07327 7.62683 3.8866 8.30683 3.65327 8.6935L2.8066 10.1068C2.2866 10.9802 2.6466 11.9535 3.6066 12.2735C6.79327 13.3335 10.2399 13.3335 13.4266 12.2735C14.3266 11.9735 14.7133 10.9202 14.2266 10.1068L13.3799 8.6935C13.1466 8.30683 12.9599 7.62016 12.9599 7.1735V5.7735C12.9533 3.3335 10.9533 1.3335 8.51327 1.3335Z" stroke="#3EB489" stroke-miterlimit="10" stroke-linecap="round"/>
<path d="M10.72 12.5469C10.72 13.7669 9.72003 14.7669 8.50003 14.7669C7.89336 14.7669 7.33336 14.5135 6.93336 14.1135C6.53336 13.7135 6.28003 13.1535 6.28003 12.5469" stroke="#3EB489" stroke-miterlimit="10"/>
</svg>
