<svg width="23" height="22" viewBox="0 0 23 22" fill="none" xmlns="http://www.w3.org/2000/svg">
<path d="M3.25 19.25V15.3542L15.35 3.27708C15.5333 3.10903 15.7359 2.97917 15.9578 2.8875C16.1796 2.79583 16.4124 2.75 16.6562 2.75C16.9001 2.75 17.1369 2.79583 17.3667 2.8875C17.5964 2.97917 17.7951 3.11667 17.9625 3.3L19.2229 4.58333C19.4062 4.75139 19.5401 4.95 19.6244 5.17917C19.7088 5.40833 19.7506 5.6375 19.75 5.86667C19.75 6.11111 19.7081 6.34425 19.6244 6.56608C19.5407 6.78792 19.4069 6.99019 19.2229 7.17292L7.14583 19.25H3.25ZM16.6333 7.15L17.9167 5.86667L16.6333 4.58333L15.35 5.86667L16.6333 7.15Z" fill="white"/>
</svg>
