<svg width="15" height="14" viewBox="0 0 15 14" fill="none" xmlns="http://www.w3.org/2000/svg">
<path d="M14.3536 14L8.62022 8.6495C8.16242 9.01349 7.63596 9.29517 7.04084 9.49454C6.44571 9.69391 5.84753 9.79359 5.24629 9.79359C3.78014 9.79359 2.53922 9.31995 1.52353 8.37266C0.507844 7.42537 0 6.2676 0 4.89936C0 3.53112 0.507233 2.37278 1.5217 1.42435C2.53617 0.475925 3.77648 0.0011413 5.24263 2.04902e-06C6.70878 -0.0011372 7.95031 0.472792 8.96722 1.42179C9.98413 2.37079 10.4926 3.52912 10.4926 4.8968C10.4926 5.49035 10.38 6.06482 10.1547 6.6202C9.9295 7.17559 9.63346 7.65066 9.26662 8.04541L15 13.3951L14.3536 14ZM5.24721 8.9383C6.46188 8.9383 7.48733 8.5481 8.32357 7.76771C9.1598 6.98733 9.57792 6.03007 9.57792 4.89594C9.57792 3.76182 9.1598 2.80484 8.32357 2.02502C7.48733 1.24521 6.46188 0.855012 5.24721 0.854442C4.03253 0.853872 3.00678 1.24407 2.16993 2.02502C1.33309 2.80598 0.914973 3.76295 0.915583 4.89594C0.916194 6.02893 1.33431 6.9859 2.16993 7.76686C3.00555 8.54782 4.03101 8.93801 5.24629 8.93744" fill="#9C9C9C"/>
</svg>
