<svg width="20" height="20" viewBox="0 0 20 20" fill="none" xmlns="http://www.w3.org/2000/svg">
<path d="M14.3875 5.00349C14.0625 4.67849 13.5375 4.67849 13.2125 5.00349L8.51246 9.70349L9.68746 10.8785L14.3875 6.17016C14.7041 5.85349 14.7041 5.32016 14.3875 5.00349ZM17.9208 4.99516L9.68746 13.2285L6.78746 10.3368C6.46246 10.0118 5.93746 10.0118 5.61246 10.3368C5.28746 10.6618 5.28746 11.1868 5.61246 11.5118L9.09579 14.9952C9.42079 15.3202 9.94579 15.3202 10.2708 14.9952L19.0958 6.17849C19.4208 5.85349 19.4208 5.32849 19.0958 5.00349H19.0875C18.7708 4.67016 18.2458 4.67016 17.9208 4.99516ZM0.904125 11.5202L4.38746 15.0035C4.71246 15.3285 5.23746 15.3285 5.56246 15.0035L6.14579 14.4202L2.07913 10.3368C1.75413 10.0118 1.22913 10.0118 0.904125 10.3368C0.579125 10.6618 0.579125 11.1952 0.904125 11.5202Z" fill="#226399"/>
</svg>
