<svg width="116" height="134" viewBox="0 0 116 134" fill="none" xmlns="http://www.w3.org/2000/svg">
<path d="M103.407 2V8.55462" stroke="#226399" stroke-width="2.5" stroke-linecap="round" stroke-linejoin="round"/>
<path d="M103.407 17.2939V23.8486" stroke="#226399" stroke-width="2.5" stroke-linecap="round" stroke-linejoin="round"/>
<path d="M92.5307 12.9245H99.0562" stroke="#226399" stroke-width="2.5" stroke-linecap="round" stroke-linejoin="round"/>
<path d="M107.757 12.9245H114.282" stroke="#226399" stroke-width="2.5" stroke-linecap="round" stroke-linejoin="round"/>
<path d="M13.1372 114.521V118.891" stroke="#226399" stroke-width="2.5" stroke-linecap="round" stroke-linejoin="round"/>
<path d="M13.1372 127.63V132" stroke="#226399" stroke-width="2.5" stroke-linecap="round" stroke-linejoin="round"/>
<path d="M4.43628 123.26H8.78661" stroke="#226399" stroke-width="2.5" stroke-linecap="round" stroke-linejoin="round"/>
<path d="M17.4872 123.26H21.8375" stroke="#226399" stroke-width="2.5" stroke-linecap="round" stroke-linejoin="round"/>
<path fill-rule="evenodd" clip-rule="evenodd" d="M90.5854 96.0874C92.0978 94.2268 93.4574 92.2811 94.6638 90.2673C97.3171 85.8381 99.2296 81.0795 100.398 76.1735C101.581 71.2117 102.002 66.0991 101.66 61.0237C101.362 56.5949 100.482 52.1945 99.0184 47.9475C97.5667 43.7339 95.5408 39.6713 92.9387 35.8817C91.3883 33.6236 89.6332 31.4623 87.6732 29.4239C84.7955 26.431 81.6391 23.8724 78.2854 21.7496C74.6819 19.4687 70.8506 17.6909 66.8924 16.4182C61.9353 14.8243 56.7791 14.0225 51.6221 14.0166C47.6097 14.0121 43.5968 14.4894 39.6768 15.4504C35.2637 16.5323 30.9683 18.2272 26.924 20.5376C23.3687 22.5687 20.0074 25.0754 16.9306 28.0595C13.064 31.8096 9.93203 36.037 7.53744 40.5612C5.19303 44.9906 3.55546 49.7045 2.62736 54.5336C1.67117 59.5089 1.46805 64.6064 2.0209 69.641C2.73746 76.1665 4.72398 82.5863 7.98678 88.4973C10.0745 92.2796 12.6849 95.8535 15.8194 99.1135C20.7955 104.289 26.605 108.166 32.8272 110.736C40.394 113.862 48.5712 115.055 56.602 114.302C63.3421 113.67 69.9791 111.667 76.0657 108.283" fill="white"/>
<path d="M90.5854 96.0874C92.0978 94.2268 93.4574 92.2811 94.6638 90.2673C97.3171 85.8381 99.2296 81.0795 100.398 76.1735C101.581 71.2117 102.002 66.0991 101.66 61.0237C101.362 56.5949 100.482 52.1945 99.0184 47.9475C97.5667 43.7339 95.5408 39.6713 92.9387 35.8817C91.3882 33.6236 89.6332 31.4623 87.6732 29.4239C84.7955 26.431 81.6391 23.8724 78.2854 21.7496C74.6819 19.4687 70.8506 17.6909 66.8924 16.4182C61.9353 14.8243 56.7791 14.0225 51.6221 14.0166C47.6097 14.0121 43.5968 14.4894 39.6768 15.4504C35.2637 16.5323 30.9683 18.2272 26.924 20.5376C23.3687 22.5687 20.0074 25.0754 16.9306 28.0595C13.064 31.8096 9.93203 36.037 7.53744 40.5612C5.19303 44.9906 3.55546 49.7045 2.62736 54.5336C1.67117 59.5089 1.46805 64.6064 2.0209 69.641C2.73746 76.1665 4.72398 82.5863 7.98678 88.4973C10.0745 92.2796 12.6849 95.8535 15.8194 99.1135C20.7955 104.289 26.605 108.166 32.8272 110.736C40.394 113.862 48.5712 115.055 56.602 114.302C63.3421 113.67 69.9791 111.667 76.0657 108.283" stroke="#226399" stroke-width="2.5" stroke-linecap="round" stroke-linejoin="round"/>
<path fill-rule="evenodd" clip-rule="evenodd" d="M79.6985 106.194C82.859 104.151 85.6691 101.603 87.4972 99.5448L79.6985 106.194Z" fill="white"/>
<path d="M79.6985 106.194C82.859 104.151 85.6691 101.603 87.4972 99.5448" stroke="#226399" stroke-width="2.5" stroke-linecap="round"/>
<path d="M97.4247 67.128C97.1136 67.1335 96.8018 67.1363 96.4894 67.1363C69.0241 67.1363 46.5353 45.6279 44.6508 18.3867C22.7896 21.8504 6.06781 40.9484 6.06781 63.9888C6.06781 89.4837 26.542 110.151 51.7983 110.151C76.0093 110.151 95.826 91.1589 97.4247 67.128Z" fill="#EDFCF6"/>
<path fill-rule="evenodd" clip-rule="evenodd" d="M34.3702 62.4912C33.0398 61.2572 30.9761 61.3519 29.7607 62.7028C28.5454 64.0538 28.6387 66.1493 29.9691 67.3833L45.3247 81.6264C47.1873 83.3541 50.0765 83.2214 51.778 81.3301C51.8491 81.2498 51.8491 81.2498 51.9178 81.1673L73.8313 54.4058C74.9834 52.9989 74.7941 50.91 73.4085 49.7402C72.0229 48.5704 69.9658 48.7627 68.8137 50.1696L48.2115 75.3297L34.3702 62.4912Z" fill="white" stroke="#226399" stroke-width="2.5" stroke-linecap="round"/>
<path fill-rule="evenodd" clip-rule="evenodd" d="M36.3281 23.2072C34.2072 24.0066 32.1354 24.9779 30.1339 26.1215C27.0237 27.8987 24.0831 30.092 21.3914 32.703C20.288 33.7733 19.253 34.8881 18.2864 36.0417M15.2963 40.0581C14.5277 41.2246 13.8203 42.4205 13.1743 43.6411C12.6972 44.5425 12.2535 45.4575 11.8433 46.384" fill="white"/>
<path d="M36.7661 24.3801C37.4111 24.137 37.7378 23.4148 37.4959 22.7671C37.254 22.1193 36.5351 21.7912 35.8901 22.0343L36.7661 24.3801ZM30.1339 26.1215L30.7505 27.2104L30.1339 26.1215ZM21.3914 32.703L20.5251 31.8019L21.3914 32.703ZM17.3322 35.2352C16.8886 35.7646 16.9562 36.5549 17.4832 37.0003C18.0102 37.4458 18.797 37.3777 19.2406 36.8483L17.3322 35.2352ZM16.3363 40.7493C16.7165 40.1723 16.5591 39.3951 15.9847 39.0133C15.4103 38.6315 14.6364 38.7898 14.2562 39.3668L16.3363 40.7493ZM13.1743 43.6411L14.2756 44.229L13.1743 43.6411ZM10.7037 45.8751C10.4238 46.5073 10.7072 47.2477 11.3366 47.5288C11.9659 47.8098 12.7031 47.5251 12.983 46.8929L10.7037 45.8751ZM36.3281 23.2072L35.8901 22.0343C33.7082 22.8567 31.5766 23.856 29.5174 25.0326L30.1339 26.1215L30.7505 27.2104C32.6943 26.0998 34.7063 25.1565 36.7661 24.3801L36.3281 23.2072ZM30.1339 26.1215L29.5174 25.0326C26.3172 26.8612 23.2926 29.1175 20.5251 31.8019L21.3914 32.703L22.2577 33.6042C24.8737 31.0666 27.7303 28.9362 30.7505 27.2104L30.1339 26.1215ZM21.3914 32.703L20.5251 31.8019C19.3907 32.9023 18.3264 34.0485 17.3322 35.2352L18.2864 36.0417L19.2406 36.8483C20.1796 35.7276 21.1853 34.6444 22.2577 33.6042L21.3914 32.703ZM15.2963 40.0581L14.2562 39.3668C13.4655 40.567 12.7377 41.7973 12.0731 43.0531L13.1743 43.6411L14.2756 44.229C14.9029 43.0437 15.5899 41.8823 16.3363 40.7493L15.2963 40.0581ZM13.1743 43.6411L12.0731 43.0531C11.5822 43.9806 11.1257 44.9219 10.7037 45.8751L11.8433 46.384L12.983 46.8929C13.3813 45.993 13.8122 45.1045 14.2756 44.229L13.1743 43.6411Z" fill="#226399"/>
</svg>
