<svg width="26" height="26" viewBox="0 0 26 26" fill="none" xmlns="http://www.w3.org/2000/svg">
<path d="M22.8258 5.66567C21.0816 5.49234 19.3375 5.36234 17.5825 5.26484V5.254L17.3441 3.84567C17.1816 2.849 16.9433 1.354 14.4083 1.354H11.57C9.0458 1.354 8.80747 2.784 8.63413 3.83484L8.40663 5.2215C7.39913 5.2865 6.39163 5.3515 5.38413 5.449L3.17413 5.66567C2.71913 5.709 2.39413 6.10984 2.43747 6.554C2.4808 6.99817 2.8708 7.32317 3.3258 7.27984L5.5358 7.06317C11.2125 6.49984 16.9325 6.7165 22.6741 7.29067C22.7066 7.29067 22.7283 7.29067 22.7608 7.29067C23.1725 7.29067 23.53 6.9765 23.5733 6.554C23.6058 6.10984 23.2808 5.709 22.8258 5.66567Z" fill="white"/>
<path d="M20.8325 8.8185C20.5725 8.54766 20.215 8.396 19.8467 8.396H6.15335C5.78501 8.396 5.41668 8.54766 5.16751 8.8185C4.91835 9.08933 4.77751 9.45766 4.79918 9.83683L5.47085 20.9518C5.59001 22.5985 5.74168 24.6568 9.52251 24.6568H16.4775C20.2583 24.6568 20.41 22.6093 20.5292 20.9518L21.2008 9.84766C21.2225 9.45766 21.0817 9.08933 20.8325 8.8185ZM14.7983 19.2293H11.1908C10.7467 19.2293 10.3783 18.861 10.3783 18.4168C10.3783 17.9727 10.7467 17.6043 11.1908 17.6043H14.7983C15.2425 17.6043 15.6108 17.9727 15.6108 18.4168C15.6108 18.861 15.2425 19.2293 14.7983 19.2293ZM15.7083 14.896H10.2917C9.84751 14.896 9.47918 14.5277 9.47918 14.0835C9.47918 13.6393 9.84751 13.271 10.2917 13.271H15.7083C16.1525 13.271 16.5208 13.6393 16.5208 14.0835C16.5208 14.5277 16.1525 14.896 15.7083 14.896Z" fill="white"/>
</svg>
