<svg width="16" height="18" viewBox="0 0 16 18" fill="none" xmlns="http://www.w3.org/2000/svg">
<path d="M13.3333 18C12.5926 18 11.963 17.7375 11.4444 17.2125C10.9259 16.6875 10.6667 16.05 10.6667 15.3C10.6667 15.195 10.6741 15.0861 10.6889 14.9733C10.7037 14.8605 10.7259 14.7594 10.7556 14.67L4.48889 10.98C4.23704 11.205 3.95556 11.3814 3.64444 11.5092C3.33333 11.637 3.00741 11.7006 2.66667 11.7C1.92593 11.7 1.2963 11.4375 0.777778 10.9125C0.259259 10.3875 0 9.75 0 9C0 8.25 0.259259 7.6125 0.777778 7.0875C1.2963 6.5625 1.92593 6.3 2.66667 6.3C3.00741 6.3 3.33333 6.3639 3.64444 6.4917C3.95556 6.6195 4.23704 6.7956 4.48889 7.02L10.7556 3.33C10.7259 3.24 10.7037 3.1389 10.6889 3.0267C10.6741 2.9145 10.6667 2.8056 10.6667 2.7C10.6667 1.95 10.9259 1.3125 11.4444 0.7875C11.963 0.2625 12.5926 0 13.3333 0C14.0741 0 14.7037 0.2625 15.2222 0.7875C15.7407 1.3125 16 1.95 16 2.7C16 3.45 15.7407 4.0875 15.2222 4.6125C14.7037 5.1375 14.0741 5.4 13.3333 5.4C12.9926 5.4 12.6667 5.3364 12.3556 5.2092C12.0444 5.082 11.763 4.9056 11.5111 4.68L5.24444 8.37C5.27407 8.46 5.2963 8.5614 5.31111 8.6742C5.32593 8.787 5.33333 8.8956 5.33333 9C5.33333 9.1044 5.32593 9.2133 5.31111 9.3267C5.2963 9.4401 5.27407 9.5412 5.24444 9.63L11.5111 13.32C11.763 13.095 12.0444 12.9189 12.3556 12.7917C12.6667 12.6645 12.9926 12.6006 13.3333 12.6C14.0741 12.6 14.7037 12.8625 15.2222 13.3875C15.7407 13.9125 16 14.55 16 15.3C16 16.05 15.7407 16.6875 15.2222 17.2125C14.7037 17.7375 14.0741 18 13.3333 18Z" fill="#101010"/>
<path d="M13.3333 18C12.5926 18 11.963 17.7375 11.4444 17.2125C10.9259 16.6875 10.6667 16.05 10.6667 15.3C10.6667 15.195 10.6741 15.0861 10.6889 14.9733C10.7037 14.8605 10.7259 14.7594 10.7556 14.67L4.48889 10.98C4.23704 11.205 3.95556 11.3814 3.64444 11.5092C3.33333 11.637 3.00741 11.7006 2.66667 11.7C1.92593 11.7 1.2963 11.4375 0.777778 10.9125C0.259259 10.3875 0 9.75 0 9C0 8.25 0.259259 7.6125 0.777778 7.0875C1.2963 6.5625 1.92593 6.3 2.66667 6.3C3.00741 6.3 3.33333 6.3639 3.64444 6.4917C3.95556 6.6195 4.23704 6.7956 4.48889 7.02L10.7556 3.33C10.7259 3.24 10.7037 3.1389 10.6889 3.0267C10.6741 2.9145 10.6667 2.8056 10.6667 2.7C10.6667 1.95 10.9259 1.3125 11.4444 0.7875C11.963 0.2625 12.5926 0 13.3333 0C14.0741 0 14.7037 0.2625 15.2222 0.7875C15.7407 1.3125 16 1.95 16 2.7C16 3.45 15.7407 4.0875 15.2222 4.6125C14.7037 5.1375 14.0741 5.4 13.3333 5.4C12.9926 5.4 12.6667 5.3364 12.3556 5.2092C12.0444 5.082 11.763 4.9056 11.5111 4.68L5.24444 8.37C5.27407 8.46 5.2963 8.5614 5.31111 8.6742C5.32593 8.787 5.33333 8.8956 5.33333 9C5.33333 9.1044 5.32593 9.2133 5.31111 9.3267C5.2963 9.4401 5.27407 9.5412 5.24444 9.63L11.5111 13.32C11.763 13.095 12.0444 12.9189 12.3556 12.7917C12.6667 12.6645 12.9926 12.6006 13.3333 12.6C14.0741 12.6 14.7037 12.8625 15.2222 13.3875C15.7407 13.9125 16 14.55 16 15.3C16 16.05 15.7407 16.6875 15.2222 17.2125C14.7037 17.7375 14.0741 18 13.3333 18Z" fill="black" fill-opacity="0.2"/>
</svg>
